<?xml version="1.0" standalone="no"?>
<!DOCTYPE svg PUBLIC "-//W3C//DTD SVG 20010904//EN"
 "http://www.w3.org/TR/2001/REC-SVG-20010904/DTD/svg10.dtd">
<svg version="1.0" xmlns="http://www.w3.org/2000/svg"
 width="720.000000pt" height="720.000000pt" viewBox="0 0 720.000000 720.000000"
 preserveAspectRatio="xMidYMid meet">
<metadata>
Created by potrace 1.14, written by Peter Selinger 2001-2017
</metadata>
<g transform="translate(0.000000,720.000000) scale(0.100000,-0.100000)"
fill="#000000" stroke="none">
<path d="M2531 6305 c-16 -14 -34 -25 -40 -25 -6 0 -11 -8 -11 -18 0 -10 -12
-25 -27 -34 -24 -14 -30 -14 -41 -2 -10 12 -10 14 2 14 25 0 28 18 5 30 -26
14 -69 5 -69 -15 0 -8 -8 -15 -18 -15 -12 0 -27 -19 -45 -55 -27 -55 -41 -66
-50 -42 -4 9 -6 9 -6 0 -1 -11 -50 -43 -66 -43 -8 0 -1 23 11 36 13 15 17 91
5 98 -5 3 -21 -6 -37 -19 -16 -14 -35 -25 -42 -25 -6 0 -11 -3 -10 -7 2 -15
-17 -52 -26 -50 -14 3 -27 -53 -22 -91 3 -18 1 -30 -4 -27 -4 3 -10 -2 -14
-10 -3 -8 -12 -15 -20 -15 -8 0 -23 -10 -33 -23 -26 -33 -52 -41 -50 -16 1 10
4 19 8 19 14 0 19 34 7 42 -10 6 -10 10 -1 16 11 7 10 88 -1 99 -8 8 -93 -83
-101 -107 -3 -11 -11 -20 -16 -20 -5 0 -9 -9 -9 -19 0 -11 -5 -23 -10 -26 -6
-4 -8 -11 -5 -16 4 -5 2 -9 -3 -9 -15 0 -12 -73 4 -98 9 -14 12 -22 7 -19 -10
6 -93 -76 -93 -93 0 -5 -6 -10 -12 -10 -10 0 -13 27 -12 103 0 109 -9 145 -35
124 -12 -9 -13 -9 -7 1 4 6 4 12 1 12 -3 0 -11 -13 -16 -30 -6 -16 -15 -30
-20 -30 -5 0 -9 -8 -9 -18 0 -11 -9 -27 -20 -37 -11 -10 -20 -26 -20 -36 0
-10 -7 -25 -16 -33 -8 -9 -13 -16 -10 -16 3 0 1 -12 -5 -27 -17 -43 -12 -108
10 -144 l20 -32 -22 -39 c-12 -21 -28 -38 -35 -38 -7 0 -11 -4 -8 -9 4 -5 -4
-22 -17 -38 -13 -15 -29 -43 -36 -60 -13 -32 -30 -44 -32 -23 -2 13 -4 21 -11
40 -4 8 -14 47 -24 85 -17 70 -38 115 -53 115 -12 0 -60 -149 -69 -217 -13
-91 -7 -171 14 -194 9 -10 13 -19 8 -19 -5 0 1 -8 13 -18 18 -14 19 -21 11
-42 -6 -14 -12 -31 -14 -37 -1 -7 -10 -31 -21 -53 -18 -39 -34 -47 -39 -19 -5
28 -34 89 -44 89 -5 0 -7 9 -5 20 2 10 -5 30 -16 45 -11 14 -17 25 -13 25 4 0
0 6 -11 13 -11 9 -15 19 -10 27 5 9 4 11 -3 6 -7 -4 -12 -1 -12 8 0 9 -4 16
-9 16 -18 0 -34 -32 -35 -70 -1 -22 -9 -49 -19 -60 -18 -21 -23 -35 -9 -27 8
6 8 -105 -1 -119 -3 -5 3 -35 14 -67 11 -32 17 -62 15 -66 -8 -13 43 -76 62
-76 24 0 26 -46 7 -115 -8 -30 -17 -67 -18 -82 -2 -15 -6 -30 -9 -34 -8 -7
-38 60 -38 83 0 8 -4 11 -10 8 -5 -3 -10 0 -10 7 0 8 -9 21 -20 31 -11 9 -20
23 -20 31 0 8 -9 18 -21 21 -11 4 -24 17 -29 30 -6 15 -16 22 -32 21 -23 -1
-23 -3 -22 -111 0 -60 4 -123 8 -140 4 -16 9 -45 12 -63 2 -19 11 -47 20 -64
8 -16 13 -36 10 -44 -3 -8 -2 -13 3 -9 5 3 25 -4 45 -16 19 -11 40 -18 45 -15
8 5 26 -23 19 -29 -2 -1 -12 -7 -23 -13 -18 -10 -18 -11 -2 -12 12 0 16 -4 10
-12 -4 -7 -9 -24 -9 -38 -1 -14 -3 -27 -4 -30 -1 -3 -1 -20 0 -37 2 -40 -13
-43 -29 -5 -13 31 -91 122 -91 107 -1 -6 -8 2 -16 18 -8 15 -19 27 -24 27 -6
0 -23 14 -39 31 -17 17 -34 28 -39 25 -10 -6 -8 -143 3 -186 3 -14 10 -50 16
-80 6 -30 14 -57 18 -60 4 -3 15 -29 24 -58 23 -72 72 -122 121 -122 27 0 36
-4 37 -17 6 -172 4 -253 -7 -257 -7 -3 -15 3 -18 12 -3 9 -16 22 -28 27 -13 6
-22 16 -20 23 2 12 -10 16 -35 13 -6 -1 -19 9 -27 21 -9 12 -16 19 -16 14 0
-5 -7 -3 -15 4 -8 7 -15 9 -15 4 0 -5 -4 -3 -8 3 -10 16 -100 34 -107 22 -7
-11 4 -53 27 -109 11 -25 23 -54 28 -65 30 -73 44 -98 70 -127 17 -18 30 -35
30 -39 0 -3 11 -12 25 -19 14 -7 25 -19 25 -27 0 -15 66 -22 115 -12 13 3 20
-1 21 -11 0 -8 4 -40 9 -70 4 -30 9 -65 10 -76 2 -12 8 -31 14 -42 24 -44 8
-68 -24 -36 -9 9 -19 14 -22 10 -3 -3 -12 -1 -20 6 -8 6 -24 12 -36 12 -12 1
-28 5 -35 10 -7 4 -36 9 -65 10 -29 1 -58 5 -64 9 -6 4 -14 3 -17 -2 -4 -5
-14 -8 -24 -6 -41 6 -62 -29 -34 -57 7 -7 12 -17 12 -23 0 -5 14 -23 30 -38
17 -16 30 -33 30 -38 0 -6 4 -7 10 -4 5 3 10 -1 10 -9 0 -9 4 -16 10 -16 5 0
23 -14 40 -31 16 -18 30 -28 30 -23 0 5 6 1 13 -8 33 -43 145 -65 193 -37 30
18 31 18 41 -4 28 -59 43 -96 43 -109 0 -8 7 -23 15 -34 8 -10 15 -27 15 -36
0 -9 6 -23 13 -30 7 -7 18 -26 25 -41 10 -23 10 -27 0 -20 -28 17 -149 22
-198 8 -14 -4 -33 -7 -42 -7 -10 1 -18 -3 -18 -8 0 -4 -22 -13 -50 -20 -28 -7
-50 -16 -50 -21 0 -5 -6 -9 -14 -9 -7 0 -19 -7 -27 -16 -11 -13 -8 -19 17 -39
16 -14 34 -24 40 -25 7 0 14 -6 17 -13 9 -24 156 -71 231 -74 69 -2 101 7 123
36 7 9 13 12 13 8 0 -13 30 20 30 33 0 21 23 4 27 -20 2 -13 12 -30 23 -37 11
-8 20 -21 20 -29 0 -8 4 -14 10 -14 5 0 9 -3 9 -8 -4 -21 3 -35 28 -58 14 -13
24 -26 22 -28 -2 -2 -26 -5 -54 -7 -27 -1 -54 -5 -60 -8 -5 -3 -16 -6 -23 -7
-8 -2 -30 -10 -50 -20 -20 -10 -44 -19 -53 -21 -25 -4 -69 -29 -63 -36 3 -3
-12 -15 -34 -26 -23 -11 -44 -26 -48 -32 -8 -14 33 -52 46 -44 5 3 11 1 15 -5
4 -6 11 -8 16 -5 5 4 15 3 22 -2 6 -4 23 -9 37 -11 13 -2 27 -8 31 -14 3 -5 9
-9 13 -9 3 1 7 0 9 0 15 -7 187 -2 187 6 1 5 20 20 43 31 23 12 41 26 40 32
-2 6 7 16 18 22 18 10 26 6 58 -29 21 -23 41 -41 46 -41 12 0 46 -42 42 -53
-2 -6 -10 -11 -19 -13 -8 -1 -32 -9 -51 -19 -20 -9 -41 -14 -46 -10 -7 3 -8 0
-5 -9 3 -9 1 -16 -5 -16 -5 0 -24 -14 -41 -30 -17 -17 -35 -30 -40 -30 -6 0
-10 -7 -10 -15 0 -8 -7 -15 -15 -15 -8 0 -15 -7 -15 -15 0 -8 -6 -15 -14 -15
-8 0 -18 -9 -21 -20 -3 -11 -10 -20 -15 -20 -17 0 -39 -55 -29 -71 5 -8 9 -10
9 -5 0 5 6 5 12 0 12 -9 26 -10 53 -4 6 1 33 2 60 2 28 0 55 3 60 6 6 4 17 7
25 7 8 0 21 4 28 9 7 4 28 10 45 13 18 3 36 11 40 19 4 8 17 14 28 14 11 0 28
14 39 32 11 18 23 32 27 31 5 -2 8 0 9 5 9 57 17 70 42 66 14 -3 32 -14 39
-24 8 -11 20 -17 27 -14 8 3 17 1 21 -5 3 -6 15 -11 26 -11 11 0 22 -7 26 -16
3 -8 12 -13 19 -10 8 3 14 1 14 -4 0 -9 39 -25 54 -22 4 2 13 -4 20 -12 6 -7
29 -17 51 -21 22 -4 45 -10 50 -15 12 -9 63 -23 88 -24 10 -1 21 -6 25 -11 4
-5 16 -11 27 -13 55 -7 82 -11 105 -17 14 -3 40 -6 58 -6 17 -1 32 -4 32 -8 0
-4 10 -7 23 -8 32 0 105 -13 131 -22 11 -4 45 -7 74 -5 28 1 52 -2 52 -8 0 -5
5 -6 10 -3 6 3 10 1 10 -5 0 -7 7 -10 15 -6 8 3 15 2 15 -2 0 -4 20 -6 45 -4
26 3 45 0 45 -6 0 -6 13 -9 30 -7 16 2 32 -1 36 -6 4 -6 11 -6 20 2 8 6 14 7
14 2 0 -8 108 -33 157 -36 12 0 19 -5 16 -10 -4 -6 5 -8 21 -5 14 3 26 1 26
-3 0 -5 13 -9 29 -9 16 0 36 -7 45 -15 8 -9 19 -15 23 -14 24 4 45 -3 64 -22
l20 -20 -25 -20 c-13 -11 -31 -18 -38 -17 -7 2 -12 -3 -11 -10 2 -6 -4 -12
-12 -12 -8 0 -15 -4 -15 -8 0 -5 -9 -19 -20 -32 -11 -13 -20 -19 -20 -15 0 5
-9 -1 -20 -13 -11 -12 -20 -27 -20 -35 0 -8 -11 -23 -25 -33 -14 -10 -25 -27
-25 -36 0 -10 -7 -18 -15 -18 -8 0 -16 -7 -16 -15 -3 -30 -4 -34 -16 -46 -7
-7 -13 -21 -13 -31 0 -10 -7 -30 -16 -43 -18 -27 -15 -81 4 -78 6 2 12 -2 12
-8 0 -6 7 -9 14 -6 11 4 13 1 10 -11 -3 -9 2 -6 10 8 8 14 16 21 16 15 1 -5
16 26 35 70 19 44 34 76 35 72 0 -20 30 24 32 47 1 14 7 26 13 26 13 0 39 29
48 54 4 9 11 14 17 11 6 -3 13 2 17 12 8 20 54 59 65 56 5 -2 8 3 8 11 0 7 19
26 41 42 l41 28 19 -23 c11 -13 22 -21 25 -18 3 3 16 -5 29 -19 12 -13 29 -24
37 -24 8 0 21 -11 28 -25 7 -14 17 -25 22 -25 4 0 8 -6 8 -14 0 -8 15 -27 33
-43 37 -33 67 -76 67 -97 0 -8 9 -21 19 -28 11 -8 21 -29 24 -47 3 -19 12 -38
19 -42 7 -5 9 -9 3 -9 -5 0 -4 -4 3 -9 8 -4 30 -8 50 -7 32 1 37 5 40 26 3 27
-52 160 -67 160 -5 0 -12 12 -15 26 -8 31 -53 102 -81 127 -70 63 -107 92
-118 92 -6 0 -12 6 -12 14 0 8 -9 17 -20 21 -17 7 -15 10 20 26 22 9 47 18 55
20 8 1 29 7 45 12 101 36 261 71 288 64 4 -1 7 4 7 11 0 8 4 7 10 -3 8 -13 11
-13 19 -1 5 7 13 11 19 7 6 -3 13 -3 16 2 3 5 30 10 61 11 31 1 67 6 80 11 13
5 26 6 29 3 3 -4 6 -1 6 6 0 8 12 12 33 10 17 -1 40 2 50 6 10 4 20 5 23 3 2
-3 32 0 66 7 34 7 67 11 75 8 7 -3 13 0 13 5 0 6 8 11 18 11 40 0 102 9 133
20 19 5 45 12 59 15 14 2 44 11 68 20 23 8 43 15 45 14 4 -2 82 24 114 38 17
8 36 14 42 14 6 0 11 5 11 11 0 6 7 9 15 6 8 -4 17 -2 20 3 4 6 13 10 21 10 9
0 30 11 48 25 18 14 35 23 37 20 3 -2 18 7 34 21 32 27 38 25 55 -29 13 -40
58 -92 90 -102 11 -4 20 -11 20 -16 0 -5 9 -9 20 -9 11 0 20 -5 20 -11 0 -5 5
-7 10 -4 6 3 15 3 22 -1 15 -9 26 -11 153 -19 95 -7 101 -6 113 14 10 18 10
21 -5 21 -17 1 -63 60 -63 81 0 6 -4 8 -8 5 -5 -3 -16 8 -26 25 -9 16 -23 29
-29 29 -7 0 -21 11 -31 25 -10 14 -24 25 -31 25 -7 0 -15 7 -19 15 -3 8 -9 15
-13 14 -21 -3 -33 2 -33 15 0 8 -5 18 -12 22 -7 4 -8 3 -4 -4 4 -7 2 -12 -3
-12 -6 0 -11 5 -11 10 0 6 -17 10 -37 10 l-36 0 74 73 c41 40 80 71 87 69 7
-2 15 -15 18 -28 3 -13 12 -24 20 -24 8 0 14 -4 14 -10 0 -23 85 -46 162 -45
90 3 268 57 268 83 0 17 -37 52 -57 52 -7 0 -13 4 -13 9 0 11 -103 62 -165 83
-39 12 -55 15 -125 17 -34 1 -34 1 -12 17 12 8 22 20 22 25 0 5 5 15 10 22 14
16 75 110 78 120 1 4 2 12 2 17 0 19 19 10 36 -18 9 -16 26 -35 38 -42 24 -16
186 -23 186 -9 0 5 11 9 23 9 13 0 27 3 31 7 3 4 14 8 23 9 30 5 72 26 70 36
-1 6 11 14 26 19 16 4 36 17 46 28 10 11 20 18 23 16 2 -3 5 1 5 9 0 8 -3 14
-6 14 -3 -1 -19 4 -34 10 -16 7 -33 12 -38 12 -5 0 -9 4 -9 8 0 4 -10 8 -21 9
-12 1 -29 8 -38 16 -9 8 -28 13 -43 10 -16 -2 -28 1 -28 7 0 6 -5 8 -10 5 -6
-4 -16 -2 -23 3 -7 5 -32 10 -55 11 -24 0 -48 3 -53 7 -5 3 -9 1 -9 -4 0 -13
-24 -22 -38 -13 -8 5 -6 18 7 46 28 60 46 109 43 118 -1 4 2 7 8 7 15 0 37 52
36 81 -1 23 2 26 25 25 18 0 26 -6 24 -16 -2 -12 9 -15 57 -14 38 1 63 6 68
14 5 8 19 15 32 17 13 2 25 8 26 13 2 6 12 10 23 10 10 0 19 6 19 14 0 8 9 18
20 21 11 3 20 10 20 15 0 4 26 35 58 68 31 33 58 64 58 69 1 4 4 17 8 28 5 16
0 23 -24 32 -17 6 -30 8 -30 4 0 -4 -26 -6 -57 -6 -32 1 -71 -2 -88 -6 -16 -4
-48 -10 -70 -13 -22 -3 -41 -5 -42 -6 -1 0 0 -7 3 -15 5 -11 -1 -15 -20 -15
-14 0 -26 -5 -26 -11 0 -5 -5 -7 -10 -4 -7 4 -8 11 -1 18 5 7 9 14 9 17 0 9
14 65 19 80 6 15 9 34 18 104 6 50 9 52 34 25 15 -17 21 -19 21 -8 0 10 11 15
34 16 23 1 44 10 61 27 14 14 30 26 35 26 6 0 10 5 10 10 0 12 52 94 63 98 4
2 7 9 7 15 0 7 7 25 15 41 9 16 17 37 19 45 2 9 11 33 20 55 9 21 18 50 19 65
2 24 -1 26 -33 23 -19 -2 -41 -9 -47 -14 -7 -6 -13 -7 -13 -4 0 4 -13 -2 -29
-13 -16 -12 -38 -21 -48 -21 -19 0 -53 -32 -53 -51 0 -5 -4 -8 -9 -5 -12 8
-51 -28 -51 -48 0 -10 -4 -15 -10 -11 -10 6 -7 266 4 284 4 6 13 11 19 10 31
-4 48 4 86 39 23 21 41 45 41 53 0 8 6 24 14 35 28 40 42 109 53 266 7 118 3
126 -44 83 -21 -19 -44 -35 -50 -35 -7 0 -13 -9 -13 -20 0 -11 -5 -20 -10 -20
-16 0 -70 -61 -86 -99 -8 -18 -17 -31 -19 -29 -5 5 -14 54 -17 96 -1 17 -6 32
-10 32 -4 0 -8 11 -8 24 0 29 24 56 48 56 66 0 109 171 103 408 -1 43 -4 52
-19 52 -10 0 -24 -10 -32 -21 -8 -12 -25 -33 -37 -47 -13 -13 -20 -28 -17 -33
3 -5 -1 -9 -9 -9 -16 0 -77 -93 -77 -118 0 -51 -32 57 -44 150 -1 10 -5 20 -8
24 -11 10 14 53 27 48 17 -7 61 71 70 123 8 52 8 158 0 248 -9 93 -8 88 -22
103 -11 11 -15 11 -28 -2 -8 -8 -15 -22 -15 -31 0 -9 -4 -13 -10 -10 -5 3 -10
-1 -10 -9 0 -9 -8 -25 -17 -35 -9 -11 -18 -28 -19 -38 -2 -10 -8 -19 -13 -21
-6 -2 -11 -14 -11 -26 0 -12 -5 -27 -10 -32 -6 -6 -12 -25 -13 -42 -1 -18 -5
-32 -8 -32 -5 0 -39 77 -45 100 0 3 -6 18 -12 33 -7 16 -12 33 -12 38 0 13 25
39 38 39 10 0 10 -1 15 104 3 50 -1 102 -11 140 -8 34 -15 69 -16 78 -1 10 -5
21 -9 24 -4 4 -7 18 -7 30 0 22 -23 54 -40 54 -4 0 -13 -15 -20 -32 -6 -18
-15 -40 -20 -49 -5 -9 -12 -34 -15 -55 -4 -22 -9 -46 -12 -54 -9 -21 -10 -28
-12 -45 -2 -25 -25 -17 -39 14 -17 39 -73 123 -92 138 -8 7 -11 13 -6 13 5 0
3 7 -4 15 -10 12 -10 21 0 45 7 16 16 30 20 30 10 0 10 99 -1 105 -7 5 -31 74
-33 97 -2 20 -63 118 -73 118 -7 0 -13 7 -13 15 0 18 -16 20 -27 3 -4 -7 -8
-62 -9 -121 -1 -60 -5 -111 -8 -114 -3 -3 -13 10 -22 30 -10 22 -22 33 -30 30
-8 -3 -14 1 -14 9 0 7 -9 20 -19 27 -15 11 -17 20 -10 43 4 17 6 44 3 61 -9
49 -49 130 -78 157 -14 14 -26 30 -26 37 0 16 -40 27 -53 14 -7 -7 -7 -32 2
-82 6 -39 10 -74 7 -76 -5 -5 -44 16 -64 35 -7 6 -22 17 -33 22 -14 8 -18 18
-14 38 5 30 -14 94 -27 86 -7 -4 -13 25 -9 48 0 4 -5 5 -13 2 -7 -3 -24 8 -38
23 -13 15 -29 29 -36 30 -17 4 -27 -47 -13 -68 6 -10 11 -31 11 -46 0 -21 -3
-24 -12 -15 -7 7 -20 12 -30 12 -10 0 -18 5 -18 10 0 6 -3 9 -7 9 -21 -3 -33
3 -33 17 0 8 -4 12 -10 9 -5 -3 -10 -3 -11 2 -4 40 -22 73 -41 73 -5 0 -17 9
-26 20 -28 33 -59 33 -70 0 -9 -24 -8 -27 7 -23 11 3 17 -2 18 -17 2 -17 -2
-20 -20 -14 -26 8 -38 20 -62 61 -10 17 -24 29 -30 26 -7 -2 -15 3 -18 11 -4
9 -16 15 -31 14 -20 -2 -23 -5 -15 -19 5 -10 9 -24 9 -33 0 -13 -3 -13 -30 0
-17 9 -38 14 -47 12 -20 -4 -29 -24 -11 -26 22 -1 72 -13 77 -18 2 -2 -6 -12
-18 -23 l-22 -19 28 -9 c32 -11 86 -6 91 8 6 15 42 10 48 -6 4 -8 17 -15 30
-15 13 0 24 -4 24 -10 0 -9 -23 -15 -45 -10 -5 1 -7 -2 -3 -6 4 -4 3 -13 -3
-20 -8 -9 -4 -17 15 -29 14 -9 29 -14 34 -12 4 3 14 2 22 -3 8 -5 25 -3 43 6
36 19 67 26 67 15 0 -5 15 -14 33 -22 49 -20 77 -40 71 -51 -4 -6 -10 -6 -16
0 -7 7 -20 1 -41 -16 -78 -68 -83 -80 -37 -77 17 1 30 -2 30 -6 0 -4 25 -9 55
-11 30 -1 55 0 55 4 0 4 9 10 20 13 11 3 20 13 20 21 0 21 15 17 49 -15 17
-16 31 -27 31 -24 0 3 7 0 15 -7 25 -21 17 -36 -22 -38 -21 -2 -40 -6 -43 -10
-3 -4 -16 -7 -30 -7 -15 0 -29 -9 -36 -23 -6 -12 -14 -19 -17 -15 -4 3 -7 2
-7 -4 0 -13 33 -43 48 -43 7 0 12 -4 12 -10 0 -5 7 -10 15 -10 8 0 23 -4 33
-9 63 -32 156 -26 167 10 5 16 10 17 28 7 30 -16 87 -76 87 -92 0 -9 -16 -13
-52 -13 -99 -1 -117 -3 -132 -19 -21 -21 -20 -31 4 -37 11 -3 20 -12 20 -21 0
-9 11 -18 25 -22 14 -3 25 -12 25 -20 0 -8 3 -14 8 -13 15 2 52 -14 52 -23 0
-5 4 -7 9 -3 5 3 17 -3 27 -12 10 -10 29 -19 43 -20 14 -1 38 -4 53 -6 17 -3
35 3 47 14 24 22 31 24 31 7 0 -7 18 -33 40 -58 22 -25 40 -52 40 -61 0 -9 9
-24 20 -34 21 -19 27 -45 11 -45 -5 0 -11 6 -14 14 -3 7 -18 16 -34 19 -15 3
-39 8 -53 12 -14 4 -34 8 -45 10 -11 2 -24 4 -30 5 -14 3 -55 -11 -55 -19 0
-4 7 -17 16 -29 8 -12 12 -22 9 -22 -4 0 6 -13 22 -28 15 -16 44 -47 64 -70
19 -22 51 -49 70 -60 19 -11 33 -24 32 -29 -1 -6 9 -8 24 -5 15 3 29 -1 34 -9
7 -11 9 -11 9 -1 0 7 5 10 10 7 6 -4 17 -1 25 5 15 12 39 5 30 -10 -3 -5 3
-11 14 -15 11 -3 19 -15 19 -28 -1 -12 5 -36 13 -54 14 -34 4 -60 -12 -30 -6
9 -17 17 -24 17 -8 0 -15 4 -15 10 0 5 -7 6 -17 3 -11 -4 -14 -3 -9 5 4 7 0
13 -11 13 -10 1 -25 2 -33 3 -8 1 -24 6 -35 12 -35 18 -70 12 -73 -13 -2 -13
1 -23 6 -23 5 0 12 -13 15 -29 3 -16 12 -35 19 -42 7 -8 19 -26 27 -42 8 -15
27 -39 42 -55 16 -15 29 -33 29 -39 0 -7 6 -13 14 -13 7 0 21 -10 29 -23 8
-13 21 -25 29 -26 30 -4 94 -4 107 0 15 4 22 -13 42 -111 6 -30 15 -63 20 -72
11 -22 12 -58 1 -58 -5 0 -17 10 -28 21 -10 12 -44 32 -74 46 -30 13 -57 29
-61 35 -4 6 -23 11 -43 10 -20 -1 -36 2 -36 7 0 6 -34 7 -50 1 -3 -1 -8 -2
-11 -2 -10 1 2 -52 15 -63 12 -12 33 -42 43 -65 3 -8 12 -19 20 -23 7 -4 13
-13 13 -19 0 -5 11 -24 25 -42 36 -45 39 -47 80 -86 33 -30 45 -35 101 -38 64
-4 64 -4 65 -36 2 -44 6 -90 12 -134 3 -20 2 -45 -2 -55 -6 -16 -11 -13 -35
22 -16 23 -35 41 -42 41 -7 0 -18 8 -23 18 -6 9 -11 13 -11 8 0 -4 -16 4 -35
18 -19 15 -35 23 -35 19 0 -4 -5 -1 -10 7 -5 8 -17 15 -27 15 -11 0 -17 6 -15
15 2 8 0 12 -3 8 -4 -4 -16 -3 -25 2 -13 7 -20 6 -24 -6 -10 -25 -7 -74 4 -74
6 0 10 -8 10 -19 0 -10 14 -45 32 -77 17 -32 36 -68 42 -79 19 -36 53 -75 66
-75 6 0 8 -4 5 -10 -3 -6 -1 -10 6 -10 7 0 23 -10 36 -22 16 -15 34 -21 63
-20 l41 2 -3 -114 c-2 -114 -9 -156 -26 -156 -5 0 -12 13 -15 28 -3 16 -20 43
-36 61 -17 18 -31 36 -31 40 0 4 -11 13 -24 19 -13 6 -32 23 -41 39 -17 29
-53 52 -71 46 -10 -3 -11 -114 -1 -131 3 -4 9 -31 13 -58 3 -27 10 -56 15 -65
4 -9 5 -20 1 -23 -4 -4 1 -12 11 -17 9 -6 17 -18 17 -29 0 -29 11 -50 26 -50
8 0 14 -6 14 -14 0 -26 60 -75 86 -70 20 4 24 0 24 -18 0 -13 -5 -39 -11 -58
-5 -19 -12 -47 -14 -62 -2 -16 -8 -43 -14 -62 -5 -19 -6 -38 -3 -42 4 -5 -1
-3 -10 5 -9 7 -20 26 -23 42 -4 17 -13 33 -21 36 -8 3 -14 11 -14 19 0 17 -21
56 -35 66 -6 5 -6 8 -1 8 6 0 1 7 -10 15 -10 8 -16 15 -11 15 4 0 -1 8 -10 18
-10 11 -21 17 -25 15 -5 -2 -8 2 -8 10 0 19 -36 50 -50 42 -13 -8 -4 -286 11
-315 1 -3 3 -9 3 -15 8 -54 84 -174 100 -158 2 3 14 -1 26 -7 20 -10 20 -13 6
-28 -8 -10 -17 -30 -20 -46 -3 -16 -17 -54 -32 -83 -14 -30 -30 -66 -34 -81
-8 -27 -8 -27 -9 -3 -1 33 -61 211 -71 211 -4 0 -11 15 -14 34 -6 30 -58 96
-77 96 -10 0 -15 -20 -18 -75 -2 -27 -5 -54 -8 -59 -10 -16 -13 -216 -3 -216
6 0 9 -3 8 -7 -5 -20 15 -93 28 -104 8 -6 14 -18 14 -26 0 -8 4 -12 9 -8 5 3
16 -2 25 -10 14 -14 14 -20 2 -48 -7 -18 -18 -31 -25 -30 -6 2 -11 -3 -11 -10
0 -7 -13 -31 -30 -53 -16 -21 -30 -45 -30 -51 0 -7 -4 -13 -9 -13 -5 0 -9 24
-9 53 0 28 -3 63 -6 77 -4 14 -9 36 -12 50 -3 13 -9 29 -14 35 -5 6 -10 22
-12 35 -2 14 -6 30 -10 35 -3 6 -9 25 -13 43 -3 17 -12 32 -20 32 -7 0 -15 10
-19 23 l-6 22 -19 -25 c-24 -31 -49 -161 -55 -280 -2 -49 4 -75 40 -182 4 -10
12 -18 19 -18 24 0 23 -36 -1 -59 -13 -13 -24 -27 -24 -32 0 -5 -5 -9 -12 -9
-7 0 -22 -12 -34 -27 -12 -16 -25 -25 -29 -21 -4 4 -8 42 -10 85 -2 46 -12
110 -26 153 -12 41 -23 77 -24 80 -7 31 -32 80 -41 80 -21 0 -73 -129 -79
-198 -2 -20 -7 -55 -11 -77 -8 -45 -8 -42 -1 -112 3 -31 13 -64 26 -82 13 -17
18 -31 12 -31 -6 0 -8 -7 -5 -15 4 -9 0 -15 -9 -15 -8 0 -17 -3 -19 -7 -4 -10
-75 -46 -96 -49 -9 -2 -18 -8 -20 -13 -2 -6 -12 -11 -22 -11 -20 0 -71 -20
-80 -31 -8 -9 -63 -23 -87 -21 -13 0 -23 -3 -23 -8 0 -7 -63 -24 -95 -25 -5 0
-12 -3 -15 -7 -8 -10 -128 -28 -148 -22 -14 5 -15 4 -2 -5 18 -13 18 -13 -41
-16 -26 -1 -59 -6 -75 -10 -16 -4 -40 -9 -54 -11 -14 -1 -36 -6 -50 -9 -14 -3
-45 -8 -70 -10 -59 -4 -148 -15 -185 -22 -16 -3 -37 -7 -45 -8 -8 -1 -22 -5
-30 -8 -8 -3 -22 -5 -30 -5 -23 0 -81 -12 -99 -21 -9 -5 -22 -6 -29 -4 -7 3
-20 2 -30 -3 -9 -4 -23 -8 -30 -10 -8 -1 -21 -6 -30 -10 -9 -4 -30 -9 -47 -11
-16 -3 -33 -10 -37 -16 -4 -7 -8 -9 -8 -4 0 4 -13 1 -30 -8 -23 -12 -30 -12
-30 -3 0 8 -3 9 -8 3 -4 -5 -16 -17 -26 -25 -18 -13 -19 -13 -11 0 6 11 3 10
-12 -3 -25 -22 -62 -22 -93 0 -14 10 -33 16 -44 14 -10 -1 -22 3 -26 9 -4 7
-19 13 -34 13 -14 1 -28 8 -31 15 -2 6 -18 12 -35 12 -17 0 -46 7 -66 15 -19
8 -50 14 -68 13 -18 -1 -39 3 -47 8 -18 11 -39 16 -68 15 -12 -1 -28 2 -35 6
-13 9 -17 9 -94 17 -31 3 -68 8 -82 11 -14 2 -50 7 -80 10 -52 5 -145 19 -200
31 -14 3 -36 6 -50 7 -14 1 -29 5 -35 8 -12 8 -147 34 -157 31 -5 -1 -8 3 -8
8 0 5 -3 9 -7 8 -16 -4 -143 25 -149 33 -3 5 -9 7 -14 4 -5 -3 -11 -1 -15 5
-3 5 -20 10 -36 10 -17 0 -32 6 -35 15 -4 8 -10 13 -14 10 -5 -3 -15 2 -24 11
-9 8 -26 16 -38 17 -13 0 -29 9 -36 19 -7 9 -18 15 -26 12 -7 -3 -19 2 -26 11
-7 8 -19 15 -26 15 -20 0 -17 30 8 81 15 31 21 60 19 99 -4 98 -7 129 -14 136
-4 4 -7 14 -7 23 0 9 -12 55 -27 103 -33 103 -53 115 -74 44 -7 -25 -17 -42
-23 -39 -5 3 -7 2 -4 -3 6 -9 -12 -100 -31 -161 -5 -18 -8 -54 -7 -80 2 -27
-1 -53 -6 -60 -13 -16 -38 -5 -38 17 0 10 -10 21 -22 24 -13 3 -33 22 -45 42
l-23 35 26 27 c15 15 33 45 41 67 19 49 21 171 4 251 -14 69 -19 95 -20 110
-1 6 -12 23 -25 37 l-24 25 -10 -21 c-6 -12 -14 -32 -17 -44 -4 -13 -11 -23
-16 -23 -5 0 -9 -10 -9 -22 0 -13 -7 -36 -15 -52 -8 -15 -15 -41 -15 -56 0
-16 -5 -30 -11 -32 -6 -2 -11 -33 -11 -71 -1 -37 -4 -67 -8 -67 -4 0 -17 11
-30 25 -13 14 -19 25 -14 25 5 0 4 4 -1 8 -12 9 -59 81 -68 104 -4 11 5 28 29
52 51 51 66 103 68 236 2 63 0 120 -3 125 -3 6 -6 12 -6 15 -1 3 -7 31 -15 62
-11 50 -15 55 -31 45 -10 -6 -15 -15 -13 -19 3 -4 1 -8 -4 -8 -5 0 -17 -18
-27 -40 -10 -22 -22 -40 -27 -40 -4 0 -8 -8 -8 -17 0 -10 -7 -31 -15 -47 -8
-15 -15 -37 -15 -47 0 -11 -4 -19 -10 -19 -5 0 -10 -12 -11 -27 0 -16 -4 -37
-9 -48 -7 -17 -10 -14 -28 25 -11 25 -31 71 -45 103 -17 37 -22 57 -14 57 8 0
8 3 2 8 -16 12 -16 32 0 32 24 0 95 47 88 57 -2 2 -2 5 -2 8 1 3 2 8 3 13 1 4
9 30 18 57 24 72 31 127 32 234 1 68 -2 98 -12 108 -12 12 -17 11 -32 -4 -10
-10 -17 -20 -17 -23 3 -13 -25 -50 -34 -45 -5 4 -9 0 -9 -8 0 -8 -9 -24 -20
-37 -11 -13 -20 -28 -20 -34 0 -6 -12 -22 -25 -35 -14 -13 -23 -26 -21 -29 3
-2 -1 -20 -9 -38 -8 -19 -14 -37 -15 -39 0 -3 0 -8 -1 -12 -1 -18 -40 175 -43
213 -2 40 -1 42 34 53 29 8 45 24 74 67 20 31 36 65 36 75 0 11 4 19 9 19 11
0 23 39 46 155 12 60 10 134 -4 147 -10 10 -12 10 -7 1 4 -8 1 -13 -9 -13 -8
0 -18 -7 -21 -15 -3 -8 -14 -17 -25 -20 -10 -4 -19 -11 -19 -16 0 -5 -16 -24
-35 -42 -19 -17 -35 -38 -35 -44 0 -7 -5 -12 -11 -11 -12 3 -24 -14 -39 -54
-10 -29 -29 -38 -31 -15 0 6 -1 40 -2 75 -1 34 -5 62 -9 62 -4 0 -3 11 2 25 6
15 6 27 0 30 -6 3 -5 16 0 31 7 17 7 23 0 19 -6 -3 -10 -1 -10 4 0 6 18 12 40
12 38 1 54 4 65 9 3 1 11 3 18 4 6 1 11 7 9 14 -1 7 9 18 23 24 14 6 25 17 25
24 0 6 7 14 15 18 8 3 15 15 15 26 0 11 5 19 11 18 6 -2 14 4 18 12 5 8 13 25
19 37 7 13 12 29 12 36 0 7 5 18 12 25 6 6 13 22 15 34 2 12 9 25 15 29 6 4
12 21 12 38 1 29 -1 30 -36 28 -20 -1 -34 -5 -32 -9 3 -4 -12 -10 -31 -14 -20
-3 -42 -15 -48 -25 -7 -11 -18 -19 -25 -19 -14 0 -28 -10 -78 -57 -19 -18 -39
-33 -44 -33 -6 0 -7 32 -4 80 9 129 15 142 58 139 38 -2 86 10 86 23 0 5 13
13 28 19 16 5 42 28 58 50 16 23 37 50 47 60 9 10 17 21 17 23 0 3 16 31 34
63 19 32 37 71 40 87 5 27 4 28 -31 21 -19 -3 -43 -10 -52 -15 -9 -4 -42 -16
-73 -26 -32 -10 -58 -21 -58 -24 0 -12 -51 -31 -62 -24 -6 4 -8 2 -5 -3 4 -6
0 -16 -7 -22 -23 -19 -27 3 -10 50 9 24 17 53 20 64 2 11 10 40 18 65 12 41
16 45 42 42 57 -5 91 8 138 54 25 25 46 50 46 55 0 5 6 9 13 9 13 0 47 54 47
75 0 8 6 18 13 22 45 27 63 138 19 114 -9 -5 -20 -9 -24 -10 -5 -1 -9 -1 -10
-2 -2 0 -14 -3 -28 -5 -13 -3 -29 -9 -34 -14 -4 -4 -15 -6 -22 -3 -9 3 -14 -2
-14 -12 0 -9 -6 -15 -12 -12 -7 2 -21 -3 -31 -11 -13 -12 -20 -13 -29 -4 -10
10 -8 21 6 50 10 20 23 48 29 61 15 30 30 36 48 19 16 -15 49 -20 49 -8 0 5
13 11 30 15 16 4 44 20 61 36 17 16 36 26 42 22 5 -3 7 -2 4 4 -3 5 8 26 26
45 73 81 84 96 90 116 4 17 0 22 -16 23 -65 5 -83 4 -92 0 -11 -6 -30 -10 -57
-13 -10 -1 -18 -6 -18 -10 0 -4 -6 -5 -14 -2 -8 3 -16 0 -19 -8 -2 -7 -2 -4 0
7 3 11 5 25 5 32 1 6 12 16 26 22 15 7 22 17 18 26 -3 8 8 27 24 44 17 16 30
34 30 40 0 15 12 14 46 -3 15 -8 30 -13 33 -11 3 1 23 6 43 9 61 9 124 44 183
100 47 46 53 55 42 70 -10 13 -30 17 -97 19 -47 1 -88 6 -92 12 -4 5 9 24 28
43 19 18 34 37 34 42 0 19 18 18 41 -3 20 -19 34 -22 98 -21 47 1 76 5 79 13
2 6 12 11 23 11 11 0 27 9 36 19 9 11 22 17 29 14 9 -3 14 2 14 16 0 28 -3 37
-12 33 -5 -1 -8 2 -8 6 0 4 -27 14 -61 21 -33 8 -63 20 -66 27 -6 16 49 74 71
74 9 0 16 -4 16 -9 0 -5 9 -11 21 -14 12 -3 19 -9 16 -14 -10 -15 161 4 177
20 17 16 11 27 -13 27 -9 0 -22 9 -29 20 -7 11 -19 20 -27 20 -8 0 -15 5 -15
10 0 6 -9 10 -21 10 -11 0 -17 5 -14 10 3 6 13 10 21 10 8 0 24 9 36 20 12 11
30 20 39 20 10 0 21 5 24 10 5 8 11 8 19 1 17 -14 90 -25 121 -17 32 8 36 55
5 63 -53 14 4 48 63 37 73 -12 82 -12 101 2 16 11 16 15 5 27 -8 8 -21 16 -29
20 -8 3 2 6 23 6 20 1 37 6 37 12 0 5 5 7 10 4 6 -4 16 -2 23 3 7 5 32 10 56
10 24 1 49 6 55 12 8 9 6 11 -9 9 -11 -2 -26 0 -34 5 -9 6 -12 5 -8 -1 4 -6
-12 -8 -40 -7 -26 2 -58 -3 -72 -10 -14 -7 -32 -11 -38 -9 -16 6 -17 34 -2 31
18 -4 22 19 5 25 -9 4 -28 -5 -45 -18z"/>
<path d="M4480 6280 c0 -5 7 -10 15 -10 8 0 18 0 22 -1 4 0 9 4 11 10 2 6 -8
11 -22 11 -14 0 -26 -4 -26 -10z"/>
<path d="M4690 6161 c0 -6 4 -13 10 -16 6 -3 7 1 4 9 -7 18 -14 21 -14 7z"/>
<path d="M1988 6033 c7 -3 16 -2 19 1 4 3 -2 6 -13 5 -11 0 -14 -3 -6 -6z"/>
<path d="M2255 6020 c-3 -5 -1 -10 4 -10 6 0 11 5 11 10 0 6 -2 10 -4 10 -3 0
-8 -4 -11 -10z"/>
<path d="M3650 6020 c0 -5 5 -10 11 -10 5 0 7 5 4 10 -3 6 -8 10 -11 10 -2 0
-4 -4 -4 -10z"/>
<path d="M3328 6003 c7 -3 16 -2 19 1 4 3 -2 6 -13 5 -11 0 -14 -3 -6 -6z"/>
<path d="M3365 6001 c-6 -5 -32 -12 -60 -16 -72 -9 -90 -12 -122 -19 -15 -4
-40 -9 -55 -11 -15 -3 -82 -21 -149 -40 -100 -29 -124 -33 -138 -23 -14 11
-14 11 -3 -3 11 -15 7 -19 -30 -34 -121 -48 -306 -140 -319 -159 -4 -5 -13 -5
-20 -1 -8 5 -11 5 -7 0 4 -4 -10 -19 -30 -32 -101 -69 -159 -111 -186 -136
-61 -56 -103 -86 -111 -79 -5 4 -5 1 -1 -5 7 -13 -61 -80 -77 -75 -4 1 -6 -2
-3 -6 3 -5 -11 -27 -32 -48 -44 -46 -153 -180 -173 -212 -8 -12 -20 -20 -26
-17 -7 2 -12 1 -12 -3 4 -23 -3 -44 -21 -62 -11 -11 -17 -20 -14 -20 3 0 -4
-13 -16 -30 -12 -16 -18 -30 -13 -30 4 0 3 -4 -4 -8 -13 -8 -123 -224 -123
-241 0 -6 -5 -11 -12 -11 -6 0 -9 -3 -5 -6 3 -4 -3 -29 -14 -58 -11 -28 -22
-58 -24 -66 -2 -8 -9 -28 -16 -45 -7 -16 -13 -34 -13 -40 -1 -8 -15 -67 -31
-135 -8 -33 -15 -72 -20 -105 -3 -22 -7 -47 -10 -55 -18 -67 -25 -410 -11
-535 7 -67 22 -158 37 -223 5 -24 7 -47 4 -53 -4 -5 -1 -9 5 -9 7 0 9 -8 5
-20 -4 -11 -2 -20 4 -20 6 0 11 -9 11 -20 0 -10 9 -41 19 -68 15 -38 17 -52 8
-62 -8 -8 -8 -11 -1 -7 15 9 53 -92 47 -125 -3 -14 -1 -28 5 -32 5 -3 7 6 5
22 l-3 27 11 -25 c69 -145 95 -196 101 -198 4 -2 8 -7 8 -12 0 -11 63 -114 73
-118 4 -2 7 -8 7 -13 0 -11 96 -143 144 -198 17 -20 78 -83 136 -141 57 -58
103 -109 102 -113 -1 -5 2 -6 7 -3 5 3 14 -1 22 -10 7 -8 51 -43 98 -77 47
-34 88 -65 89 -69 2 -4 10 -8 17 -8 8 0 20 -6 27 -13 7 -6 30 -21 50 -31 20
-11 34 -24 32 -28 -3 -5 -2 -7 3 -6 13 4 133 -54 133 -63 0 -5 7 -9 15 -9 8 0
34 -8 58 -19 38 -17 88 -37 142 -57 11 -4 22 -8 25 -9 3 -1 20 -6 37 -10 18
-4 31 -11 28 -15 -3 -4 5 -8 18 -7 12 0 33 -2 47 -6 14 -3 54 -12 90 -21 36
-8 79 -17 95 -20 17 -3 40 -8 52 -10 30 -6 201 -19 241 -17 17 0 32 -4 32 -10
0 -6 -4 -8 -9 -4 -5 3 -12 1 -15 -4 -4 -5 2 -8 11 -6 10 2 22 4 26 4 5 1 5 5
2 11 -3 6 1 7 9 4 9 -3 14 -9 11 -13 -2 -4 2 -8 10 -8 8 0 12 4 9 9 -3 4 3 9
13 9 10 1 32 3 48 4 17 2 66 5 110 8 44 3 113 10 154 16 91 14 323 70 335 82
6 5 20 9 33 9 12 0 38 9 58 20 19 11 35 17 35 15 0 -3 22 6 50 20 27 14 52 25
55 25 3 0 18 6 35 15 18 9 31 11 35 5 3 -6 12 -10 18 -10 7 0 6 4 -3 10 -18
11 -18 11 55 51 33 18 86 50 117 71 31 21 60 38 63 38 3 0 18 11 33 25 15 14
32 25 39 25 7 0 13 4 13 9 0 5 24 27 53 48 28 21 103 90 166 153 63 63 119
114 124 112 4 -1 6 2 2 7 -5 9 14 37 53 77 6 7 12 17 12 22 0 6 4 12 9 14 12
5 125 179 167 259 20 38 39 67 43 65 3 -2 7 6 8 17 0 12 14 49 29 82 16 33 29
65 30 70 1 6 14 42 28 80 25 69 73 242 82 300 3 17 7 41 10 55 3 14 7 39 10
55 9 53 12 506 3 544 -4 20 -10 59 -14 86 -3 28 -10 68 -16 90 -5 22 -11 51
-13 65 -1 14 -5 32 -9 40 -4 13 -9 30 -22 80 0 3 -7 22 -14 42 -7 21 -10 42
-6 48 3 5 2 10 -3 10 -9 0 -63 136 -61 154 0 5 -3 12 -8 15 -16 11 -55 100
-48 111 3 5 0 8 -7 5 -8 -2 -22 15 -35 44 -13 26 -42 77 -65 112 -22 35 -41
70 -41 76 0 7 -2 11 -5 8 -5 -5 -32 20 -32 30 0 7 -7 16 -55 72 -20 23 -34 47
-30 53 4 6 2 9 -3 8 -11 -3 -141 131 -142 145 0 4 -4 7 -9 7 -14 0 -83 67 -74
72 4 3 2 3 -4 2 -7 -2 -24 7 -37 19 -44 40 -76 67 -81 67 -5 0 -37 25 -60 48
-8 6 -16 12 -19 12 -7 0 -119 70 -126 79 -16 18 -345 170 -385 178 -11 2 -54
14 -95 27 -120 39 -255 65 -415 82 -47 5 -348 5 -387 0 -15 -2 -25 1 -22 5 7
12 -9 11 -21 0z m32 -449 c29 -20 53 -41 53 -45 0 -5 -26 12 -59 37 -32 25
-64 46 -71 48 -9 2 -12 -21 -12 -92 1 -122 -5 -105 -11 27 l-4 102 26 -20 c14
-10 50 -36 78 -57z m343 49 c0 -16 3 -36 6 -45 3 -9 1 -16 -5 -16 -6 0 -10 3
-10 8 1 4 1 22 0 40 -1 31 -2 32 -44 32 l-43 0 3 -140 4 -140 -24 23 c-14 12
-57 45 -95 72 -39 28 -71 54 -72 58 0 8 34 -15 115 -79 70 -54 66 -59 61 76
-3 66 -8 125 -11 131 -4 5 19 9 54 9 61 0 61 0 61 -29z m448 -61 l40 -10 -15
-43 c-8 -23 -15 -50 -16 -59 -1 -10 -5 -18 -9 -18 -10 0 -11 -2 8 59 8 29 14
55 12 57 -2 1 -22 6 -45 10 -38 6 -41 5 -47 -22 -16 -76 -92 -324 -98 -324 -4
0 -5 6 -3 13 6 16 68 225 89 300 12 42 21 57 31 53 8 -3 31 -10 53 -16z m-439
-132 c1 -68 4 -156 6 -196 4 -72 4 -72 -18 -60 -20 11 -20 13 -4 16 16 3 18
11 13 65 -12 121 -16 297 -8 297 5 0 10 -55 11 -122z m-850 -122 c66 -49 119
-92 116 -94 -2 -2 -19 7 -37 22 -45 36 -46 37 -103 76 -53 38 -81 59 -99 76
-12 12 -51 34 -60 34 -2 0 -7 -10 -9 -22 -3 -14 -5 -8 -6 15 l-1 38 39 -28
c21 -15 93 -68 160 -117z m573 86 c9 -11 7 -11 -15 -1 -15 7 -27 16 -27 21 0
5 -4 7 -9 3 -5 -3 -8 -29 -5 -58 14 -173 13 -188 -13 -198 -30 -11 -33 -11
-33 1 0 6 9 10 20 10 20 0 21 4 16 135 l-4 135 30 -17 c16 -10 34 -24 40 -31z
m-149 -95 c4 -96 8 -120 21 -130 16 -12 16 -13 -3 -13 -24 0 -23 -3 -26 56 -8
129 -8 217 -1 209 2 -2 6 -57 9 -122z m846 56 c-10 -38 -19 -71 -19 -75 0 -5
-4 -8 -10 -8 -5 0 -3 18 5 40 8 22 14 42 15 45 4 34 14 65 21 65 4 0 -1 -30
-12 -67z m460 17 c31 0 17 -40 -59 -162 -46 -73 -89 -144 -97 -156 -8 -13 -13
-25 -11 -26 2 -2 28 -19 58 -40 30 -20 50 -36 44 -36 -6 0 -23 9 -37 20 -14
11 -30 20 -36 20 -6 0 -11 5 -11 10 0 6 -7 10 -15 10 -17 0 -20 25 -5 43 6 7
31 46 57 87 25 41 63 102 84 136 22 33 39 65 39 70 0 5 -16 17 -36 26 l-35 18
-39 -62 c-46 -71 -54 -80 -44 -53 4 11 23 41 41 67 18 26 33 53 33 59 0 6 13
1 29 -10 16 -12 34 -21 40 -21z m-1921 -160 c-1 -88 -5 -160 -8 -160 -5 0 -5
76 -1 263 0 31 3 57 6 57 2 0 4 -72 3 -160z m818 138 l19 -21 -27 18 c-29 18
-34 25 -20 25 5 0 17 -10 28 -22z m54 -38 c13 -11 19 -20 14 -20 -12 1 -44 25
-44 34 0 10 5 7 30 -14z m-790 -47 c0 -29 -12 -24 -17 7 -2 11 2 20 7 20 6 0
10 -12 10 -27z m872 -18 c7 -6 24 -18 38 -28 13 -9 19 -17 12 -17 -11 0 -43
24 -83 62 -9 9 -21 13 -25 10 -4 -4 -4 -1 0 6 7 11 12 10 27 -5 10 -10 24 -23
31 -28z m-801 -22 c27 -20 49 -42 49 -48 0 -10 -60 -38 -67 -31 -2 2 10 10 27
18 l31 15 -50 39 c-28 21 -51 39 -51 41 0 9 18 -1 61 -34z m1258 -39 c-12 -38
-23 -75 -25 -82 -4 -14 -51 -9 -67 7 -7 7 0 8 22 1 23 -6 33 -6 36 3 2 7 11
37 20 67 10 30 19 61 21 69 3 8 7 12 10 9 2 -3 -5 -36 -17 -74z m349 46 c-7
-10 -14 -18 -15 -16 -6 6 9 36 18 36 5 0 4 -9 -3 -20z m-1677 -53 c2 -42 5
-46 22 -41 12 4 17 2 13 -4 -3 -5 -14 -12 -25 -15 -17 -4 -20 2 -23 44 -3 47
0 74 7 67 2 -2 5 -25 6 -51z m300 -13 c27 -20 49 -39 49 -42 0 -4 -9 -13 -20
-20 -23 -14 -27 -5 -5 12 12 9 6 17 -36 49 -29 20 -48 37 -44 37 4 0 29 -16
56 -36z m920 2 c-6 -14 -8 -33 -5 -41 4 -8 1 -15 -4 -15 -10 0 -7 64 4 82 11
18 14 0 5 -26z m407 -17 c-43 -69 -55 -73 -15 -5 17 31 35 56 39 56 4 0 -7
-23 -24 -51z m-1405 -43 c25 -19 21 -29 -5 -12 -21 14 -30 11 -118 -32 -93
-46 -95 -48 -100 -87 -4 -30 -10 -41 -25 -43 -18 -2 -18 -2 -2 8 11 7 17 23
17 46 0 35 1 36 103 84 56 27 104 49 107 49 3 0 13 -6 23 -13z m63 -21 c-20
-15 -36 -19 -36 -10 0 5 38 23 50 24 3 0 -4 -6 -14 -14z m-875 -12 c8 -9 9
-14 3 -10 -19 11 -24 -18 -24 -130 0 -59 -3 -104 -6 -100 -10 10 -4 232 7 235
5 2 7 8 3 13 -9 15 3 10 17 -8z m2149 -33 c-28 -39 -25 -42 78 -96 17 -10 32
-22 32 -27 0 -5 -12 -1 -27 9 -16 10 -49 30 -75 44 l-48 26 27 42 c15 23 29
39 31 37 2 -2 -6 -18 -18 -35z m-2085 -11 c11 -17 -1 -21 -15 -4 -8 9 -8 15
-2 15 6 0 14 -5 17 -11z m443 -14 c0 -14 -4 -27 -8 -30 -4 -3 -7 9 -6 25 1 36
14 40 14 5z m-368 -57 c0 -5 -10 0 -22 12 -12 11 -25 20 -30 20 -4 0 -8 5 -8
10 0 6 14 1 30 -12 17 -12 30 -26 30 -30z m362 -19 c-4 -29 -3 -30 17 -20 11
7 21 8 21 2 0 -9 -23 -21 -41 -21 -5 0 -9 16 -9 35 0 19 4 35 8 35 5 0 6 -14
4 -31z m-282 -38 c110 -88 130 -107 130 -121 0 -5 -5 -10 -11 -10 -5 0 -8 4
-5 8 6 10 -4 25 -30 43 -20 13 -81 63 -134 109 -38 33 -1 11 50 -29z m2190 29
c11 -7 11 -10 2 -10 -7 0 -11 -4 -8 -8 3 -5 -5 -21 -18 -36 -25 -33 -44 -31
-91 10 -29 25 -15 24 15 -1 35 -29 57 -27 73 7 12 25 13 34 4 40 -7 4 -7 8 -2
8 6 0 17 -5 25 -10z m-2252 -112 c2 -5 8 -8 13 -8 5 0 19 -9 31 -19 13 -11 34
-29 47 -40 29 -26 39 -26 65 -3 20 17 20 16 6 -3 -8 -11 -19 -23 -25 -27 -11
-8 -47 18 -164 116 -30 25 -56 45 -57 43 -2 -1 -4 -24 -5 -49 -2 -26 -5 -45
-8 -43 -3 1 -4 28 -3 59 l4 57 46 -38 c26 -21 49 -41 50 -45z m1253 30 c11
-20 10 -21 -3 -11 -8 7 -18 10 -22 6 -4 -4 -4 0 0 10 8 22 11 22 25 -5z m1609
-18 c-12 -22 -21 -26 -17 -8 2 14 -34 13 -90 -2 -18 -5 -33 -5 -33 -1 0 8 83
27 128 30 20 1 21 -2 12 -19z m-150 -9 c0 -5 -21 -12 -47 -15 -54 -8 -65 -10
-183 -32 -112 -21 -112 -21 -131 -29 -10 -3 -20 -2 -24 4 -3 6 0 11 7 12 7 0
22 2 33 4 17 3 86 14 112 17 5 1 24 5 43 10 19 4 53 10 75 13 32 5 101 19 113
24 1 1 2 -3 2 -8z m-2908 -48 c-9 -7 -21 -13 -26 -13 -6 0 -3 7 7 14 9 7 17
22 18 32 0 18 1 18 9 -1 5 -14 3 -24 -8 -32z m1389 -6 c-10 -9 -11 -8 -5 6 3
10 9 15 12 12 3 -3 0 -11 -7 -18z m191 -9 c-8 -8 -9 -4 -5 13 4 13 8 18 11 10
2 -7 -1 -18 -6 -23z m1444 5 c-7 -16 -35 -76 -62 -135 -27 -60 -53 -108 -57
-108 -5 0 -1 12 7 28 28 52 96 199 96 209 0 8 20 33 26 33 1 0 -3 -12 -10 -27z
m-3071 -2 c-6 -5 -26 -12 -45 -15 l-35 -6 35 14 c42 17 58 20 45 7z m150 -18
c-1 -16 -3 -31 -3 -35 -2 -6 -92 -39 -120 -44 -42 -7 -46 -14 -22 -39 34 -36
21 -36 -18 1 l-33 31 86 23 c78 21 116 45 99 63 -5 5 3 27 10 27 2 0 2 -12 1
-27z m-235 -3 c0 -5 -9 -10 -21 -10 -11 0 -28 -4 -37 -9 -27 -13 -88 -23 -77
-12 6 6 24 12 40 15 24 5 67 16 93 25 1 1 2 -3 2 -9z m3048 -7 c-2 -5 -16 -33
-30 -63 -41 -85 -44 -89 -63 -65 -29 37 -37 61 -11 32 13 -16 30 -26 36 -22 6
3 8 10 5 15 -3 5 -1 11 5 15 9 6 40 69 40 82 0 3 -15 1 -32 -3 -18 -4 -43 -8
-55 -10 -29 -3 -45 -13 -38 -25 4 -5 2 -9 -3 -9 -6 0 -12 6 -15 14 -6 15 13
23 73 33 19 3 37 7 39 9 8 7 53 4 49 -3z m-340 -35 c11 -15 22 -17 51 -13 33
5 41 2 55 -20 9 -14 13 -25 9 -25 -5 0 -14 9 -21 20 -9 15 -20 18 -49 15 -33
-4 -41 -1 -63 27 -14 18 -18 28 -10 23 8 -5 21 -17 28 -27z m-2828 -31 c0 -4
-11 0 -25 10 -13 10 -25 22 -25 26 0 4 11 0 25 -10 13 -10 25 -22 25 -26z
m127 -102 c7 -5 30 -23 52 -40 22 -16 43 -36 46 -44 6 -14 0 -10 -56 39 -9 8
-48 40 -87 70 -39 30 -71 59 -72 63 0 5 24 -11 53 -35 28 -23 58 -47 64 -53z
m2847 48 c4 -10 22 -36 41 -58 40 -45 40 -46 21 -84 -13 -25 -13 -30 10 -59
14 -18 29 -32 33 -32 5 0 21 29 37 65 16 36 32 65 36 65 9 0 -51 -129 -67
-146 -8 -8 -20 3 -44 37 -32 47 -33 50 -17 74 18 28 17 32 -29 90 -41 52 -48
65 -36 65 5 0 12 -8 15 -17z m-2601 -124 c17 -15 16 -17 -5 -45 -43 -55 -42
-55 -89 -12 -24 22 -35 34 -24 27 11 -8 29 -22 39 -31 26 -24 31 -23 59 14
l25 31 -32 26 c-17 14 -40 34 -50 43 -11 10 -23 18 -28 18 -4 0 -13 10 -19 23
-11 19 45 -23 124 -94z m597 51 c11 -8 7 -9 -15 -4 -37 8 -45 14 -19 14 10 0
26 -5 34 -10z m1465 0 c3 -6 -1 -7 -9 -4 -18 7 -21 14 -7 14 6 0 13 -4 16 -10z
m-1410 -20 c3 -6 -1 -7 -9 -4 -18 7 -21 14 -7 14 6 0 13 -4 16 -10z m49 -19
c4 -5 -3 -7 -14 -4 -23 6 -26 13 -6 13 8 0 17 -4 20 -9z m66 -21 c8 -5 11 -10
5 -10 -5 0 -17 5 -25 10 -8 5 -10 10 -5 10 6 0 17 -5 25 -10z m1271 -33 c-10
-9 -11 -8 -5 6 3 10 9 15 12 12 3 -3 0 -11 -7 -18z m-1161 -58 c15 -28 5 -23
-15 7 -9 15 -12 23 -6 20 6 -4 16 -16 21 -27z m810 -4 c0 -8 -4 -15 -10 -15
-5 0 -7 7 -4 15 4 8 8 15 10 15 2 0 4 -7 4 -15z m-775 -35 c3 -5 1 -10 -4 -10
-6 0 -11 5 -11 10 0 6 2 10 4 10 3 0 8 -4 11 -10z m539 -55 c-4 -8 -8 -15 -10
-15 -2 0 -4 7 -4 15 0 8 4 15 10 15 5 0 7 -7 4 -15z m-485 -29 c-3 -3 -11 5
-18 17 -13 21 -12 21 5 5 10 -10 16 -20 13 -22z m654 19 c-3 -9 -8 -14 -10
-11 -3 3 -2 9 2 15 9 16 15 13 8 -4z m-173 -19 c0 -3 -4 -8 -10 -11 -5 -3 -10
-1 -10 4 0 6 5 11 10 11 6 0 10 -2 10 -4z m440 -60 c0 -2 -7 -7 -16 -10 -8 -3
-12 -2 -9 4 6 10 25 14 25 6z m-699 -39 c-10 -9 -11 -8 -5 6 3 10 9 15 12 12
3 -3 0 -11 -7 -18z m69 13 c-8 -5 -19 -10 -25 -10 -5 0 -3 5 5 10 8 5 20 10
25 10 6 0 3 -5 -5 -10z m197 -3 c0 -8 -6 -14 -13 -14 -7 0 -10 6 -7 14 3 7 8
13 12 13 4 0 8 -6 8 -13z m-308 -31 c-2 -2 -14 -9 -26 -15 -18 -9 -22 -9 -18
2 3 7 15 13 26 14 12 1 20 1 18 -1z m386 -6 c-3 -5 3 -13 12 -19 10 -6 14 -10
8 -10 -5 -1 -20 7 -33 17 -22 17 -22 18 -2 19 11 1 18 -2 15 -7z m-445 -20 c0
-5 -2 -10 -4 -10 -3 0 -8 5 -11 10 -3 6 -1 10 4 10 6 0 11 -4 11 -10z m670 -4
c0 -2 -8 -10 -17 -17 -16 -13 -17 -12 -4 4 13 16 21 21 21 13z m-895 -46 c3
-6 -1 -7 -9 -4 -18 7 -21 14 -7 14 6 0 13 -4 16 -10z m805 -24 c0 -2 -6 -9
-14 -15 -11 -9 -16 -9 -22 0 -4 7 -3 9 4 5 6 -3 13 -2 17 4 6 10 15 14 15 6z
m-672 -28 c-8 -12 -20 -24 -26 -26 -7 -2 -2 8 11 22 27 32 34 33 15 4z m674
-28 c10 -10 14 -22 9 -24 -4 -3 -13 6 -19 19 -14 30 -12 31 10 5z m-707 -18
c-3 -3 -11 0 -18 7 -9 10 -8 11 6 5 10 -3 15 -9 12 -12z m-392 -69 c-7 -2 -19
-2 -25 0 -7 3 -2 5 12 5 14 0 19 -2 13 -5z m337 -3 c0 -5 -2 -10 -4 -10 -3 0
-8 5 -11 10 -3 6 -1 10 4 10 6 0 11 -4 11 -10z m1137 4 c-3 -3 -12 -4 -19 -1
-8 3 -5 6 6 6 11 1 17 -2 13 -5z m-1310 -20 c-3 -3 -12 -4 -19 -1 -8 3 -5 6 6
6 11 1 17 -2 13 -5z m193 -24 c0 -5 -5 -10 -11 -10 -5 0 -7 5 -4 10 3 6 8 10
11 10 2 0 4 -4 4 -10z m-650 -54 c0 -2 -7 -7 -16 -10 -8 -3 -12 -2 -9 4 6 10
25 14 25 6z m2105 -5 c3 -5 2 -12 -3 -15 -5 -3 -9 1 -9 9 0 17 3 19 12 6z
m123 -8 c-10 -2 -26 -2 -35 0 -10 3 -2 5 17 5 19 0 27 -2 18 -5z m-789 -25
c-2 -13 0 -29 4 -35 5 -7 4 -13 -2 -13 -13 0 -18 19 -13 47 6 30 14 30 11 1z
m-781 -83 c-3 -3 -9 2 -12 12 -6 14 -5 15 5 6 7 -7 10 -15 7 -18z m-48 -5 c0
-5 -5 -10 -11 -10 -5 0 -7 5 -4 10 3 6 8 10 11 10 2 0 4 -4 4 -10z m853 3 c-7
-2 -19 -2 -25 0 -7 3 -2 5 12 5 14 0 19 -2 13 -5z m-775 -68 c-3 -3 -9 2 -12
12 -6 14 -5 15 5 6 7 -7 10 -15 7 -18z m757 -29 c16 -13 13 -13 -17 1 -21 10
-38 22 -38 26 0 9 26 -4 55 -27z m-775 14 c0 -5 -5 -10 -11 -10 -5 0 -7 5 -4
10 3 6 8 10 11 10 2 0 4 -4 4 -10z m38 -25 c-3 -3 -9 2 -12 12 -6 14 -5 15 5
6 7 -7 10 -15 7 -18z m-73 5 c-3 -5 -12 -10 -18 -10 -7 0 -6 4 3 10 19 12 23
12 15 0z m100 -40 c10 -11 16 -20 13 -20 -3 0 -13 9 -23 20 -10 11 -16 20 -13
20 3 0 13 -9 23 -20z m555 -55 c-6 -8 -8 -20 -4 -27 5 -10 4 -10 -6 -1 -11 10
-11 15 0 28 7 8 15 15 17 15 3 0 0 -7 -7 -15z m-460 -32 c0 -7 -39 17 -46 28
-3 6 5 3 20 -6 14 -10 26 -19 26 -22z m425 -3 c-3 -5 -13 -10 -21 -10 -8 0
-12 -4 -9 -10 3 -5 4 -10 1 -10 -17 0 -13 22 6 29 30 13 30 13 23 1z m-765 -4
c0 -2 -7 -7 -16 -10 -8 -3 -12 -2 -9 4 6 10 25 14 25 6z m368 -25 c-7 -9 -13
-17 -14 -19 -1 -2 -1 8 0 21 0 15 6 23 14 20 10 -4 10 -9 0 -22z m-37 -4 c-10
-9 -11 -8 -5 6 3 10 9 15 12 12 3 -3 0 -11 -7 -18z m99 -6 c0 -6 -4 -12 -8
-15 -5 -3 -9 1 -9 9 0 8 4 15 9 15 4 0 8 -4 8 -9z m43 -8 c-7 -2 -19 -2 -25 0
-7 3 -2 5 12 5 14 0 19 -2 13 -5z m157 -5 c0 -4 -4 -8 -9 -8 -6 0 -12 4 -15 8
-3 5 1 9 9 9 8 0 15 -4 15 -9z m-310 -2 c0 -2 -8 -10 -17 -17 -16 -13 -17 -12
-4 4 13 16 21 21 21 13z m180 0 c0 -2 -8 -10 -17 -17 -16 -13 -17 -12 -4 4 13
16 21 21 21 13z m295 -6 c3 -6 -1 -7 -9 -4 -18 7 -21 14 -7 14 6 0 13 -4 16
-10z m330 -18 c-3 -3 -11 0 -18 7 -9 10 -8 11 6 5 10 -3 15 -9 12 -12z m-428
-54 c-3 -7 -5 -2 -5 12 0 14 2 19 5 13 2 -7 2 -19 0 -25z m-266 -1 c-10 -9
-11 -8 -5 6 3 10 9 15 12 12 3 -3 0 -11 -7 -18z m-211 9 c0 -2 -8 -10 -17 -17
-16 -13 -17 -12 -4 4 13 16 21 21 21 13z m30 -40 c0 -2 -8 -10 -17 -17 -16
-13 -17 -12 -4 4 13 16 21 21 21 13z m211 -59 c-10 -9 -11 -8 -5 6 3 10 9 15
12 12 3 -3 0 -11 -7 -18z m-84 -9 c-3 -8 -6 -5 -6 6 -1 11 2 17 5 13 3 -3 4
-12 1 -19z m321 -29 c-3 -8 -7 -3 -11 10 -4 17 -3 21 5 13 5 -5 8 -16 6 -23z
m-301 -31 c-3 -8 -6 -5 -6 6 -1 11 2 17 5 13 3 -3 4 -12 1 -19z m50 -40 c-3
-8 -6 -5 -6 6 -1 11 2 17 5 13 3 -3 4 -12 1 -19z m-420 -14 c-3 -3 -12 -4 -19
-1 -8 3 -5 6 6 6 11 1 17 -2 13 -5z m673 -269 c0 -5 -5 -3 -10 5 -5 8 -10 20
-10 25 0 6 5 3 10 -5 5 -8 10 -19 10 -25z m-127 -90 c-3 -9 -8 -14 -10 -11 -3
3 -2 9 2 15 9 16 15 13 8 -4z"/>
<path d="M3168 5993 c12 -2 32 -2 45 0 12 2 2 4 -23 4 -25 0 -35 -2 -22 -4z"/>
<path d="M4268 5913 c7 -3 16 -2 19 1 4 3 -2 6 -13 5 -11 0 -14 -3 -6 -6z"/>
<path d="M4350 5890 c-12 -8 -10 -10 8 -10 13 0 20 4 17 10 -7 12 -6 12 -25 0z"/>
<path d="M2716 5853 c-6 -14 -5 -15 5 -6 7 7 10 15 7 18 -3 3 -9 -2 -12 -12z"/>
<path d="M4628 5768 c5 -5 16 -8 23 -6 8 3 3 7 -10 11 -17 4 -21 3 -13 -5z"/>
<path d="M4735 5700 c-3 -5 1 -10 10 -10 9 0 13 5 10 10 -3 6 -8 10 -10 10 -2
0 -7 -4 -10 -10z"/>
<path d="M4890 5700 c0 -5 5 -10 11 -10 5 0 7 5 4 10 -3 6 -8 10 -11 10 -2 0
-4 -4 -4 -10z"/>
<path d="M4780 5671 c0 -6 5 -13 10 -16 6 -3 10 1 10 9 0 9 -4 16 -10 16 -5 0
-10 -4 -10 -9z"/>
<path d="M2270 5596 c0 -2 7 -6 15 -10 8 -3 15 -1 15 4 0 6 -7 10 -15 10 -8 0
-15 -2 -15 -4z"/>
<path d="M4940 5564 c0 -1 6 -7 14 -13 10 -9 15 -8 19 3 4 10 0 14 -14 13 -10
-1 -19 -2 -19 -3z"/>
<path d="M1495 5540 c3 -5 8 -10 11 -10 2 0 4 5 4 10 0 6 -5 10 -11 10 -5 0
-7 -4 -4 -10z"/>
<path d="M5750 5480 c0 -5 7 -7 15 -4 8 4 15 8 15 10 0 2 -7 4 -15 4 -8 0 -15
-4 -15 -10z"/>
<path d="M5450 5379 c0 -5 5 -7 10 -4 6 3 10 8 10 11 0 2 -4 4 -10 4 -5 0 -10
-5 -10 -11z"/>
<path d="M1921 5244 c0 -11 3 -14 6 -6 3 7 2 16 -1 19 -3 4 -6 -2 -5 -13z"/>
<path d="M5276 5241 c-4 -6 -2 -11 4 -11 6 0 8 -6 4 -12 -6 -10 -4 -10 7 0 9
9 10 15 2 23 -8 8 -13 8 -17 0z"/>
<path d="M5432 5150 c0 -14 2 -19 5 -12 2 6 2 18 0 25 -3 6 -5 1 -5 -13z"/>
<path d="M1841 5136 c-7 -8 -8 -17 -3 -20 6 -3 12 3 15 14 6 24 4 25 -12 6z"/>
<path d="M5977 5083 c-4 -3 -7 -11 -7 -17 0 -6 5 -5 12 2 6 6 9 14 7 17 -3 3
-9 2 -12 -2z"/>
<path d="M1370 5060 c0 -5 5 -10 11 -10 5 0 7 5 4 10 -3 6 -8 10 -11 10 -2 0
-4 -4 -4 -10z"/>
<path d="M5396 5055 c4 -8 7 -15 9 -15 2 0 5 7 9 15 3 9 0 15 -9 15 -9 0 -12
-6 -9 -15z"/>
<path d="M5425 5010 c3 -5 8 -10 11 -10 2 0 4 5 4 10 0 6 -5 10 -11 10 -5 0
-7 -4 -4 -10z"/>
<path d="M1591 4944 c0 -11 3 -14 6 -6 3 7 2 16 -1 19 -3 4 -6 -2 -5 -13z"/>
<path d="M5467 4954 c-6 -7 44 -83 55 -84 13 0 -5 35 -29 57 -17 15 -20 23
-11 26 7 3 8 6 2 6 -6 1 -13 -2 -17 -5z"/>
<path d="M6175 4840 c3 -5 8 -10 11 -10 2 0 4 5 4 10 0 6 -5 10 -11 10 -5 0
-7 -4 -4 -10z"/>
<path d="M1633 4795 c-3 -9 -3 -18 -1 -21 3 -3 8 4 11 16 6 23 -1 27 -10 5z"/>
<path d="M6147 4759 c7 -7 15 -10 18 -7 3 3 -2 9 -12 12 -14 6 -15 5 -6 -5z"/>
<path d="M5610 4631 c0 -6 5 -13 10 -16 6 -3 10 1 10 9 0 9 -4 16 -10 16 -5 0
-10 -4 -10 -9z"/>
<path d="M1450 4440 c0 -5 5 -10 11 -10 5 0 7 5 4 10 -3 6 -8 10 -11 10 -2 0
-4 -4 -4 -10z"/>
<path d="M1494 4419 c-3 -6 -1 -16 4 -21 8 -8 11 -5 9 11 -1 24 -3 25 -13 10z"/>
<path d="M5718 4313 c6 -2 9 -10 6 -15 -4 -7 -2 -8 5 -4 13 9 5 26 -12 25 -9
0 -8 -2 1 -6z"/>
<path d="M6295 4310 c3 -5 8 -10 11 -10 2 0 4 5 4 10 0 6 -5 10 -11 10 -5 0
-7 -4 -4 -10z"/>
<path d="M6170 4219 c0 -5 5 -7 10 -4 6 3 10 8 10 11 0 2 -4 4 -10 4 -5 0 -10
-5 -10 -11z"/>
<path d="M5751 4084 c0 -11 3 -14 6 -6 3 7 2 16 -1 19 -3 4 -6 -2 -5 -13z"/>
<path d="M5751 3584 c0 -11 3 -14 6 -6 3 7 2 16 -1 19 -3 4 -6 -2 -5 -13z"/>
<path d="M5720 3461 c0 -6 4 -13 10 -16 6 -3 7 1 4 9 -7 18 -14 21 -14 7z"/>
<path d="M6385 3370 c-3 -5 -1 -10 4 -10 6 0 11 5 11 10 0 6 -2 10 -4 10 -3 0
-8 -4 -11 -10z"/>
<path d="M1550 3100 c0 -11 4 -20 9 -20 5 0 7 9 4 20 -3 11 -7 20 -9 20 -2 0
-4 -9 -4 -20z"/>
<path d="M5500 2840 c0 -5 5 -10 11 -10 5 0 7 5 4 10 -3 6 -8 10 -11 10 -2 0
-4 -4 -4 -10z"/>
<path d="M1170 2719 c0 -5 5 -7 10 -4 6 3 10 8 10 11 0 2 -4 4 -10 4 -5 0 -10
-5 -10 -11z"/>
<path d="M5866 2705 c-3 -8 -1 -15 4 -15 6 0 10 7 10 15 0 8 -2 15 -4 15 -2 0
-6 -7 -10 -15z"/>
<path d="M1810 2619 c0 -5 5 -7 10 -4 6 3 10 8 10 11 0 2 -4 4 -10 4 -5 0 -10
-5 -10 -11z"/>
<path d="M5436 2617 c3 -10 9 -15 12 -12 3 3 0 11 -7 18 -10 9 -11 8 -5 -6z"/>
<path d="M1856 2547 c3 -10 9 -15 12 -12 3 3 0 11 -7 18 -10 9 -11 8 -5 -6z"/>
<path d="M1480 2407 c0 -14 4 -28 9 -32 6 -3 8 6 5 22 -7 37 -14 42 -14 10z"/>
<path d="M5230 2390 c0 -5 5 -10 11 -10 5 0 7 5 4 10 -3 6 -8 10 -11 10 -2 0
-4 -4 -4 -10z"/>
<path d="M2030 2344 c0 -8 5 -12 10 -9 6 4 8 11 5 16 -9 14 -15 11 -15 -7z"/>
<path d="M2065 2300 c4 -6 11 -8 16 -5 14 9 11 15 -7 15 -8 0 -12 -5 -9 -10z"/>
<path d="M1773 2210 c-1 -11 2 -20 7 -20 4 0 7 7 6 15 -3 23 -12 26 -13 5z"/>
<path d="M2276 2121 c-3 -5 1 -11 9 -14 9 -4 12 -1 8 9 -6 16 -10 17 -17 5z"/>
<path d="M4777 2046 c-4 -10 -1 -13 8 -9 8 3 12 9 9 14 -7 12 -11 11 -17 -5z"/>
<path d="M2458 2003 c6 -2 18 -2 25 0 6 3 1 5 -13 5 -14 0 -19 -2 -12 -5z"/>
<path d="M2350 1980 c0 -5 5 -10 10 -10 6 0 10 5 10 10 0 6 -4 10 -10 10 -5 0
-10 -4 -10 -10z"/>
<path d="M4670 1980 c0 -5 5 -10 10 -10 6 0 10 5 10 10 0 6 -4 10 -10 10 -5 0
-10 -4 -10 -10z"/>
<path d="M3635 1700 c-3 -5 -1 -10 4 -10 6 0 11 5 11 10 0 6 -2 10 -4 10 -3 0
-8 -4 -11 -10z"/>
<path d="M3666 1698 c5 -7 63 -3 71 5 2 3 -14 4 -36 3 -21 0 -37 -4 -35 -8z"/>
</g>
</svg>
